# xmcd
#
# Track frame offsets: 
#        150
#        22521
#        42486
#        63497
#        81510
#        96942
#        114129
#        139532
#        157837
#        179158
#        186620
#        203146
#        218907
#        241024
#
# Disc length: 3483 seconds
#
# Revision: 10
# Processed by: cddbd v1.5.2PL0 Copyright (c) Steve Scherf et al.
# Submitted via: ExactAudioCopy v1.3
#
DISCID=bd0d990e
DTITLE=Whitesnake - Lovehunter
DYEAR=1979
DGENRE=Hard Rock
TTITLE0=Long Way From Home
TTITLE1=Walking In The Shadow Of The Blues
TTITLE2=Help Me Thro' The Day
TTITLE3=Medicine Man
TTITLE4=You 'N' Me
TTITLE5=Mean Business
TTITLE6=Love Hunter
TTITLE7=Outlaw
TTITLE8=Rock 'N' Roll Women
TTITLE9=We Wish You Well
TTITLE10=Belgium Tom's Hat Trick [Andy Peebles 29-Mar-1979] @
TTITLE11=Love To Keep You Warm [Andy Peebles 29-Mar-1979] @
TTITLE12=Ain't No Love In The Heart Of The City [Andy Peebles 29-Mar-1
TTITLE12=979] @
TTITLE13=Trouble [Andy Peebles 29-Mar-1979] @
EXTD=YEAR: 1979
EXTT0=
EXTT1=
EXTT2=
EXTT3=
EXTT4=
EXTT5=
EXTT6=
EXTT7=
EXTT8=
EXTT9=
EXTT10=
EXTT11=
EXTT12=
EXTT13=
PLAYORDER=
